<svg class="logo" id="グループ_437" data-name="グループ 437" xmlns="http://www.w3.org/2000/svg" xmlns:xlink="http://www.w3.org/1999/xlink" width="104.84200286865234" height="52.141998291015625" viewBox="0 0 104.842 52.142">
	<defs>
		<clipPath id="clip-path">
			<rect id="長方形_2174" data-name="長方形 2174" width="104.842" height="52.142" fill="none" class="svg-elem-1">
			</rect>
		</clipPath>
	</defs>
	<g id="グループ_436" data-name="グループ 436" clip-path="url(#clip-path)">
		<path id="パス_1" data-name="パス 1" d="M6.638,354.892a2.775,2.775,0,0,0-1.772-.495H0v6.333H.766V358.3h4c1.656,0,2.5-.661,2.5-1.964a1.756,1.756,0,0,0-.621-1.443m-.171,1.435c0,.864-.552,1.283-1.687,1.283H.766v-2.524H4.814c1.112,0,1.653.406,1.653,1.241" transform="translate(0 -308.794)" fill="#fff" class="svg-elem-2">
		</path>
		<path id="パス_2" data-name="パス 2" d="M73.881,354.4h-.766v6.333h6.292v-.689H73.881Z" transform="translate(-63.707 -308.795)" fill="#fff" class="svg-elem-3">
		</path>
		<path id="パス_3" data-name="パス 3" d="M271.282,354.4h-.766v6.333h6.292v-.689h-5.526Z" transform="translate(-235.707 -308.795)" fill="#fff" class="svg-elem-4">
		</path>
		<path id="パス_4" data-name="パス 4" d="M145.459,354.4h-.717l-3.077,6.333h.831l.9-1.864h3.389l.9,1.864h.848l-3.05-6.277Zm1,3.78h-2.742l1.371-2.85Z" transform="translate(-123.435 -308.795)" fill="#fff" class="svg-elem-5">
		</path>
		<path id="パス_5" data-name="パス 5" d="M204.62,358.457l-2.165-4.059h-.925l2.69,4.8v1.529h.766v-1.538l2.69-4.795h-.891Z" transform="translate(-175.597 -308.795)" fill="#fff" class="svg-elem-6">
		</path>
		<rect id="長方形_2171" data-name="長方形 2171" width="0.766" height="6.333" transform="translate(43.631 45.603)" fill="#fff" class="svg-elem-7">
		</rect>
		<path id="パス_6" data-name="パス 6" d="M373.209,359.78l-2.444-5.382h-.881l2.927,6.332h.746l2.927-6.332h-.856Z" transform="translate(-322.288 -308.795)" fill="#fff" class="svg-elem-8">
		</path>
		<rect id="長方形_2172" data-name="長方形 2172" width="0.766" height="6.333" transform="translate(56.997 45.603)" fill="#fff" class="svg-elem-9">
		</rect>
		<path id="パス_7" data-name="パス 7" d="M482.594,359.819l-6.9-5.4-.027-.021h-.7v6.332h.766v-5.42l6.9,5.4.027.021h.7V354.4h-.766Z" transform="translate(-413.848 -308.795)" fill="#fff" class="svg-elem-10">
		</path>
		<rect id="長方形_2173" data-name="長方形 2173" width="0.766" height="6.333" transform="translate(86.352 45.603)" fill="#fff" class="svg-elem-11">
		</rect>
		<path id="パス_8" data-name="パス 8" d="M706.159,355.015l.03-.029V354.4h-6.18v.689h5.114l-5.192,5.056v.588h6.211l.157-.688H701Z" transform="translate(-609.866 -308.795)" fill="#fff" class="svg-elem-12">
		</path>
		<path id="パス_9" data-name="パス 9" d="M775.427,353.8v3.828c0,1.32-.681,1.962-2.082,1.962s-2.083-.642-2.083-1.962V353.8H770.5v3.8c0,1.782.959,2.685,2.849,2.685s2.848-.9,2.848-2.685v-3.8Z" transform="translate(-671.351 -308.27)" fill="#fff" class="svg-elem-13">
		</path>
		<path id="パス_10" data-name="パス 10" d="M561.318,356.82h2.189a2.649,2.649,0,0,1-.369,1.035,2.428,2.428,0,0,1-2.03.981,2.575,2.575,0,0,1-2.619-2.647,2.634,2.634,0,0,1,4.326-2.078,2.84,2.84,0,0,1,.27.261l.029.033h.926l-.117-.159a3.745,3.745,0,0,0-.725-.747,3.174,3.174,0,0,0-2.052-.707,3.373,3.373,0,1,0-.028,6.746,3.053,3.053,0,0,0,2.473-1.109,3.54,3.54,0,0,0,.67-2.147v-.164h-2.944Z" transform="translate(-485.964 -307.396)" fill="#fff" class="svg-elem-14">
		</path>
		<path id="パス_11" data-name="パス 11" d="M254.684,5.044C251.014,1.614,244.011.012,232.646,0h-.122c-11.365.011-18.368,1.614-22.038,5.044-3.438,3.213-3.717,7.71-3.716,12.827s.282,9.614,3.72,12.826c3.673,3.43,10.681,5.03,22.055,5.036h.079c11.374-.005,18.381-1.6,22.055-5.035,3.439-3.211,3.719-7.708,3.72-12.826s-.278-9.615-3.716-12.827M211,5.591c3.53-3.3,10.39-4.837,21.588-4.843s18.059,1.544,21.588,4.843c3.218,3.008,3.479,7.341,3.478,12.281s-.264,9.273-3.483,12.279c-3.53,3.3-10.388,4.832-21.584,4.834S214.531,33.447,211,30.151c-3.219-3.006-3.482-7.339-3.483-12.279S207.779,8.6,211,5.591" transform="translate(-180.164)" fill="#fff" class="svg-elem-15">
		</path>
	</g>
</svg>
