<svg xmlns="http://www.w3.org/2000/svg" width="6.695" height="6.779" viewBox="0 0 6.695 6.779">
	<g id="グループ_762" data-name="グループ 762" transform="translate(3361.836 4204.845)">
		<path id="パス_1804" data-name="パス 1804" d="M5.431,13.729H.581A.582.582,0,0,1,0,13.148V8.3a.582.582,0,0,1,.581-.581H3.054v.795H.795v4.423H5.217V10.771h.795v2.377a.582.582,0,0,1-.581.581" transform="translate(-3361.836 -4211.795)" fill="#404040" />
		<rect id="長方形_2333" data-name="長方形 2333" width="4.978" height="0.795" transform="matrix(0.707, -0.707, 0.707, 0.707, -3359.326, -4201.157)" fill="#404040" />
		<path id="パス_1805" data-name="パス 1805" d="M45.773,2.482h-.795V.795h-1.59V0h1.788a.6.6,0,0,1,.6.6Z" transform="translate(-3400.915 -4204.845)" fill="#404040" />
	</g>
</svg>
